<?xml version="1.0" encoding="UTF-8" standalone="no"?>
<!DOCTYPE svg PUBLIC "-//W3C//DTD SVG 1.1//EN" "http://www.w3.org/Graphics/SVG/1.1/DTD/svg11.dtd">
<svg width="100%" height="100%" viewBox="0 0 40 40" version="1.1" xmlns="http://www.w3.org/2000/svg" xmlns:xlink="http://www.w3.org/1999/xlink" xml:space="preserve" xmlns:serif="http://www.serif.com/" style="fill-rule:evenodd;clip-rule:evenodd;stroke-linejoin:round;stroke-miterlimit:2;">
    <path d="M30,8.75L27.5,8.75L27.5,7.5C27.5,7.168 27.368,6.851 27.134,6.616C26.9,6.382 26.581,6.25 26.25,6.25C25.919,6.25 25.601,6.382 25.366,6.616C25.132,6.851 25,7.168 25,7.5L25,8.75L21.25,8.75L21.25,7.5C21.25,7.168 21.118,6.851 20.884,6.616C20.65,6.382 20.331,6.25 20,6.25C19.669,6.25 19.351,6.382 19.116,6.616C18.882,6.851 18.75,7.168 18.75,7.5L18.75,8.75L15,8.75L15,7.5C15,7.168 14.868,6.851 14.634,6.616C14.4,6.382 14.082,6.25 13.75,6.25C13.419,6.25 13.101,6.382 12.866,6.616C12.632,6.851 12.5,7.168 12.5,7.5L12.5,8.75L10,8.75C9.005,8.75 8.052,9.145 7.348,9.848C6.645,10.552 6.25,11.505 6.25,12.5L6.25,30C6.25,30.995 6.645,31.948 7.348,32.652C8.052,33.355 9.005,33.75 10,33.75L30,33.75C30.995,33.75 31.948,33.355 32.652,32.652C33.355,31.948 33.75,30.995 33.75,30L33.75,12.5C33.75,11.505 33.355,10.552 32.652,9.848C31.948,9.145 30.995,8.75 30,8.75ZM8.75,12.5C8.75,12.169 8.882,11.851 9.116,11.616C9.351,11.382 9.668,11.25 10,11.25L12.5,11.25L12.5,12.5C12.5,12.832 12.632,13.15 12.866,13.384C13.101,13.618 13.419,13.75 13.75,13.75C14.082,13.75 14.4,13.618 14.634,13.384C14.868,13.15 15,12.832 15,12.5L15,11.25L18.75,11.25L18.75,12.5C18.75,12.832 18.882,13.15 19.116,13.384C19.351,13.618 19.669,13.75 20,13.75C20.331,13.75 20.65,13.618 20.884,13.384C21.118,13.15 21.25,12.832 21.25,12.5L21.25,11.25L25,11.25L25,12.5C25,12.832 25.132,13.15 25.366,13.384C25.601,13.618 25.919,13.75 26.25,13.75C26.581,13.75 26.9,13.618 27.134,13.384C27.368,13.15 27.5,12.832 27.5,12.5L27.5,11.25L30,11.25C30.331,11.25 30.65,11.382 30.884,11.616C31.118,11.851 31.25,12.169 31.25,12.5L31.25,16.25L8.75,16.25L8.75,12.5ZM31.25,30C31.25,30.331 31.118,30.65 30.884,30.884C30.65,31.118 30.331,31.25 30,31.25L10,31.25C9.668,31.25 9.351,31.118 9.116,30.884C8.882,30.65 8.75,30.331 8.75,30L8.75,18.75L31.25,18.75L31.25,30Z" style="fill:rgb(77,68,181);fill-rule:nonzero;"/>
</svg>
