<?xml version="1.0" encoding="UTF-8" standalone="no"?>
<!DOCTYPE svg PUBLIC "-//W3C//DTD SVG 1.1//EN" "http://www.w3.org/Graphics/SVG/1.1/DTD/svg11.dtd">
<svg width="100%" height="100%" viewBox="0 0 40 40" version="1.1" xmlns="http://www.w3.org/2000/svg" xmlns:xlink="http://www.w3.org/1999/xlink" xml:space="preserve" xmlns:serif="http://www.serif.com/" style="fill-rule:evenodd;clip-rule:evenodd;stroke-linejoin:round;stroke-miterlimit:2;">
    <path d="M36.237,21.844C33.996,21.032 31.51,21.212 29.408,22.337L25.981,23.879C25.704,22.301 24.492,21.115 22.996,21.069C22.988,21.069 17.859,21.011 17.859,21.011C13.754,19.885 11.086,21.332 9.565,22.758C9.253,23.05 8.98,23.35 8.739,23.646C8.328,23.204 7.603,23.086 7.075,23.376L2.419,25.935C1.815,26.267 1.553,26.996 1.806,27.636L6.356,39.138C6.655,39.893 7.574,40.227 8.291,39.833L12.946,37.274C13.383,37.034 13.64,36.587 13.654,36.116L20.602,36.116C21.736,36.116 22.855,35.819 23.838,35.255C23.838,35.255 36.907,27.759 36.98,27.692C38.81,26.027 38.867,22.797 36.237,21.844C33.996,21.032 37.286,22.224 36.237,21.844ZM8.332,36.688L4.797,27.751L7.033,26.522L10.568,35.459L8.332,36.688ZM35.232,25.577L22.475,32.883C21.905,33.209 21.258,33.381 20.602,33.381L12.692,33.381L10.036,26.667C10.264,26.203 10.712,25.434 11.439,24.752C12.93,23.356 14.895,22.998 17.279,23.69C17.398,23.724 17.522,23.743 17.646,23.744L22.918,23.803C23.053,23.815 23.301,24.114 23.301,24.568C23.301,25.035 23.045,25.333 22.91,25.333L17.73,25.333L17.73,28.068L22.91,28.068C23.552,28.068 24.149,27.851 24.646,27.479L30.578,24.811C30.609,24.797 30.64,24.782 30.67,24.765C32.093,23.991 33.782,23.864 35.302,24.415C35.904,24.633 35.469,25.336 35.232,25.577ZM27,19.708C21.567,19.708 17.147,15.287 17.147,9.854C17.147,4.421 21.567,0 27,0C32.433,0 36.853,4.421 36.853,9.854C36.853,15.287 32.433,19.708 27,19.708ZM27,2.735C23.078,2.735 19.886,5.929 19.886,9.854C19.886,13.779 23.078,16.973 27,16.973C30.923,16.973 34.114,13.779 34.114,9.854C34.114,5.929 30.922,2.735 27,2.735Z" style="fill:rgb(77,68,181);fill-rule:nonzero;"/>
    <path d="M27.636,8.739C26.547,8.292 26.463,8.1 26.463,7.877C26.463,7.735 26.533,7.404 27.188,7.404C27.786,7.404 28.532,7.74 29.058,8.086L29.79,6.168C29.267,5.835 28.632,5.55 28.039,5.458L28.039,4.211L26.088,4.211L26.088,5.58C24.929,5.945 24.215,6.871 24.215,8.025C24.215,9.552 25.437,10.234 26.63,10.699C27.584,11.083 27.664,11.377 27.664,11.622C27.664,11.999 27.316,12.243 26.779,12.243C26.077,12.243 25.261,11.838 24.69,11.395L23.986,13.344C24.569,13.795 25.243,14.093 26.001,14.205L26.001,15.497L27.964,15.497L27.964,14.09C29.159,13.71 29.924,12.719 29.924,11.535C29.924,9.878 28.702,9.171 27.636,8.739Z" style="fill:rgb(77,68,181);fill-rule:nonzero;"/>
</svg>
