<?xml version="1.0" encoding="UTF-8" standalone="no"?>
<!DOCTYPE svg PUBLIC "-//W3C//DTD SVG 1.1//EN" "http://www.w3.org/Graphics/SVG/1.1/DTD/svg11.dtd">
<svg width="100%" height="100%" viewBox="0 0 40 40" version="1.1" xmlns="http://www.w3.org/2000/svg" xmlns:xlink="http://www.w3.org/1999/xlink" xml:space="preserve" xmlns:serif="http://www.serif.com/" style="fill-rule:evenodd;clip-rule:evenodd;stroke-linejoin:round;stroke-miterlimit:2;">
    <path d="M14.255,3.509C11.969,4.642 10.046,6.393 8.705,8.563C7.364,10.733 6.658,13.236 6.667,15.787L6.667,21.717C6.668,22.587 7.014,23.422 7.629,24.037C8.245,24.653 9.08,24.999 9.95,25L13.333,25L13.333,35C13.333,35.442 13.509,35.866 13.822,36.179C14.134,36.491 14.558,36.667 15,36.667C15.442,36.667 15.866,36.491 16.179,36.179C16.491,35.866 16.667,35.442 16.667,35L16.667,5C16.666,4.716 16.594,4.437 16.455,4.189C16.317,3.941 16.117,3.732 15.876,3.583C15.634,3.434 15.358,3.348 15.075,3.335C14.791,3.323 14.509,3.382 14.255,3.509ZM13.333,21.683L10,21.717L10,15.787C9.995,14.352 10.289,12.933 10.863,11.618C11.437,10.303 12.278,9.123 13.333,8.151L13.333,21.683ZM30,5L30,11.667C29.999,12.109 29.824,12.532 29.511,12.845C29.199,13.157 28.775,13.333 28.333,13.333L28.333,5C28.333,4.558 28.158,4.134 27.845,3.821C27.533,3.509 27.109,3.333 26.667,3.333C26.225,3.333 25.801,3.509 25.488,3.821C25.176,4.134 25,4.558 25,5L25,13.333C24.558,13.333 24.135,13.157 23.822,12.845C23.51,12.532 23.334,12.109 23.333,11.667L23.333,5C23.333,4.558 23.158,4.134 22.845,3.821C22.533,3.509 22.109,3.333 21.667,3.333C21.225,3.333 20.801,3.509 20.488,3.821C20.176,4.134 20,4.558 20,5L20,11.667C20.001,12.992 20.529,14.263 21.466,15.201C22.403,16.138 23.674,16.665 25,16.667L25,35C25,35.442 25.176,35.866 25.488,36.179C25.801,36.491 26.225,36.667 26.667,36.667C27.109,36.667 27.533,36.491 27.845,36.179C28.158,35.866 28.333,35.442 28.333,35L28.333,16.667C29.659,16.665 30.93,16.138 31.867,15.201C32.805,14.263 33.332,12.992 33.333,11.667L33.333,5C33.333,4.558 33.158,4.134 32.845,3.821C32.533,3.509 32.109,3.333 31.667,3.333C31.225,3.333 30.801,3.509 30.488,3.821C30.176,4.134 30,4.558 30,5Z" style="fill:rgb(77,68,181);fill-rule:nonzero;"/>
</svg>
