<svg width="40" height="40" xmlns="http://www.w3.org/2000/svg" fill="none">
 <g>
  <title>Layer 1</title>
  <path id="svg_1" fill="#4d44b5" d="m33.3334,13.3333l-10,-8.76663c-0.9167,-0.81993 -2.1035,-1.27322 -3.3334,-1.27322c-1.2299,0 -2.4166,0.45329 -3.3333,1.27322l-10,8.76663c-0.52938,0.4735 -0.95183,1.0543 -1.23921,1.7038c-0.28738,0.6495 -0.4331,1.3527 -0.42745,2.0629l0,14.5667c0,1.3261 0.52678,2.5978 1.46446,3.5355c0.93768,0.9377 2.20945,1.4645 3.5355,1.4645l20,0c1.3261,0 2.5979,-0.5268 3.5356,-1.4645c0.9377,-0.9377 1.4644,-2.2094 1.4644,-3.5355l0,-14.5834c0.0033,-0.7074 -0.1436,-1.4074 -0.4309,-2.0538c-0.2873,-0.6465 -0.7085,-1.2246 -1.2357,-1.6962zm-10,20l-6.6667,0l0,-8.3333c0,-0.442 0.1756,-0.8659 0.4882,-1.1785c0.3125,-0.3126 0.7364,-0.4882 1.1785,-0.4882l3.3333,0c0.442,0 0.8659,0.1756 1.1785,0.4882c0.3126,0.3126 0.4882,0.7365 0.4882,1.1785l0,8.3333zm8.3333,-1.6666c0,0.442 -0.1756,0.8659 -0.4882,1.1785c-0.3125,0.3125 -0.7364,0.4881 -1.1785,0.4881l-3.3333,0l0,-8.3333c0,-1.3261 -0.5268,-2.5979 -1.4645,-3.5355c-0.9376,-0.9377 -2.2094,-1.4645 -3.5355,-1.4645l-3.3333,0c-1.3261,0 -2.5979,0.5268 -3.5356,1.4645c-0.9376,0.9376 -1.4644,2.2094 -1.4644,3.5355l0,8.3333l-3.3334,0c-0.44199,0 -0.86591,-0.1756 -1.17848,-0.4881c-0.31256,-0.3126 -0.48815,-0.7365 -0.48815,-1.1785l0,-14.5834c0.0003,-0.2366 0.05099,-0.4705 0.14869,-0.686c0.09771,-0.2155 0.24019,-0.4078 0.41798,-0.564l9.99996,-8.74996c0.3042,-0.2672 0.6952,-0.41456 1.1,-0.41456c0.4049,0 0.7959,0.14736 1.1,0.41456l10,8.74996c0.1778,0.1562 0.3203,0.3485 0.418,0.564c0.0977,0.2155 0.1484,0.4494 0.1487,0.686l0,14.5834z"/>
 </g>

</svg>