<?xml version="1.0" encoding="UTF-8" standalone="no"?>
<!DOCTYPE svg PUBLIC "-//W3C//DTD SVG 1.1//EN" "http://www.w3.org/Graphics/SVG/1.1/DTD/svg11.dtd">
<svg width="100%" height="100%" viewBox="0 0 40 40" version="1.1" xmlns="http://www.w3.org/2000/svg" xmlns:xlink="http://www.w3.org/1999/xlink" xml:space="preserve" xmlns:serif="http://www.serif.com/" style="fill-rule:evenodd;clip-rule:evenodd;stroke-linejoin:round;stroke-miterlimit:2;">
    <path d="M31.25,38.75L8.75,38.75C6.679,38.75 5,37.071 5,35L5,24.586C5,22.774 6.296,21.221 8.079,20.898C10.721,20.416 15.278,19.587 17.855,19.12C19.274,18.861 20.726,18.861 22.145,19.12C24.723,19.587 29.279,20.416 31.921,20.898C33.704,21.221 35,22.774 35,24.586L35,35C35,37.071 33.321,38.75 31.25,38.75ZM29.785,23.05L29.79,23.056C30.009,23.384 30.06,23.795 29.929,24.166L29.046,26.666C28.931,26.993 28.685,27.258 28.368,27.396L26.708,28.12L27.368,29.441C27.552,29.81 27.543,30.246 27.343,30.608L24.208,36.25L31.25,36.25C31.94,36.25 32.5,35.69 32.5,35L32.5,24.586C32.5,23.983 32.068,23.465 31.474,23.356L29.785,23.05ZM26.366,22.427L21.698,21.579C20.575,21.375 19.425,21.375 18.302,21.579L13.634,22.427L12.636,23.924L13.13,25.321L15.5,26.354C15.814,26.491 16.058,26.751 16.175,27.074C16.293,27.396 16.271,27.753 16.118,28.059L15.163,29.969L18.653,36.25L21.348,36.25L24.837,29.969L23.883,28.059C23.729,27.753 23.708,27.396 23.825,27.074C23.943,26.751 24.186,26.491 24.5,26.354L26.87,25.321L27.364,23.924L26.366,22.427ZM10.215,23.05L8.526,23.356C7.933,23.465 7.5,23.983 7.5,24.586L7.5,35C7.5,35.69 8.06,36.25 8.75,36.25L15.793,36.25L12.658,30.608C12.458,30.246 12.448,29.81 12.633,29.441L13.293,28.12L11.633,27.396C11.315,27.258 11.069,26.993 10.954,26.666L10.071,24.166C9.94,23.795 9.991,23.384 10.21,23.056L10.215,23.05ZM28.75,30L28.75,32.5C28.75,33.19 29.31,33.75 30,33.75C30.69,33.75 31.25,33.19 31.25,32.5L31.25,30C31.25,29.31 30.69,28.75 30,28.75C29.31,28.75 28.75,29.31 28.75,30ZM20,1.25C15.516,1.25 11.875,4.891 11.875,9.375C11.875,13.859 15.516,17.5 20,17.5C24.484,17.5 28.125,13.859 28.125,9.375C28.125,4.891 24.484,1.25 20,1.25ZM20,3.75C23.105,3.75 25.625,6.27 25.625,9.375C25.625,12.48 23.105,15 20,15C16.895,15 14.375,12.48 14.375,9.375C14.375,6.27 16.895,3.75 20,3.75Z" style="fill:rgb(77,68,181);"/>
</svg>
