<?xml version="1.0" encoding="UTF-8" standalone="no"?>
<!DOCTYPE svg PUBLIC "-//W3C//DTD SVG 1.1//EN" "http://www.w3.org/Graphics/SVG/1.1/DTD/svg11.dtd">
<svg width="100%" height="100%" viewBox="0 0 40 40" version="1.1" xmlns="http://www.w3.org/2000/svg" xmlns:xlink="http://www.w3.org/1999/xlink" xml:space="preserve" xmlns:serif="http://www.serif.com/" style="fill-rule:evenodd;clip-rule:evenodd;stroke-linejoin:round;stroke-miterlimit:2;">
    <path d="M5,35C5,37.071 6.679,38.75 8.75,38.75L31.25,38.75C33.321,38.75 35,37.071 35,35L35,24.586C35,22.774 33.704,21.221 31.921,20.898C29.279,20.416 24.723,19.587 22.145,19.12C20.726,18.861 19.274,18.861 17.855,19.12C15.278,19.587 10.721,20.416 8.079,20.898C6.296,21.221 5,22.774 5,24.586L5,35ZM22.885,21.795L24.761,28.929C25.008,29.865 24.677,30.859 23.92,31.464C23.28,31.974 22.271,32.779 21.571,33.339C20.653,34.071 19.348,34.071 18.429,33.339C17.729,32.779 16.72,31.974 16.08,31.464C15.323,30.859 14.993,29.865 15.239,28.929L17.115,21.795L8.526,23.356C7.933,23.465 7.5,23.983 7.5,24.586L7.5,35C7.5,35.69 8.06,36.25 8.75,36.25L31.25,36.25C31.94,36.25 32.5,35.69 32.5,35L32.5,24.586C32.5,23.983 32.068,23.465 31.474,23.356L22.885,21.795ZM20.204,21.429C20.068,21.425 19.933,21.425 19.796,21.429L17.666,29.531L19.989,31.384C19.995,31.39 20.005,31.39 20.011,31.384L22.334,29.531L20.204,21.429ZM20,1.25C15.516,1.25 11.875,4.891 11.875,9.375C11.875,13.859 15.516,17.5 20,17.5C24.484,17.5 28.125,13.859 28.125,9.375C28.125,4.891 24.484,1.25 20,1.25ZM20,3.75C23.105,3.75 25.625,6.27 25.625,9.375C25.625,12.48 23.105,15 20,15C16.895,15 14.375,12.48 14.375,9.375C14.375,6.27 16.895,3.75 20,3.75Z" style="fill:rgb(77,68,181);"/>
</svg>
