<svg width="40" height="40" xmlns="http://www.w3.org/2000/svg" fill="none">

 <g>
  <title>Layer 1</title>
  <path id="svg_1" fill="#ffffff" d="m26.1758,10.875c0,0.3437 -0.0234,0.6875 -0.0664,1.0273c0.0195,-0.1367 0.0391,-0.2773 0.0547,-0.414c-0.0938,0.6797 -0.2735,1.3398 -0.5352,1.9726c0.0508,-0.125 0.1055,-0.25 0.1563,-0.375c-0.2617,0.6172 -0.5977,1.1953 -1.0078,1.7266c0.082,-0.1055 0.164,-0.2109 0.2461,-0.3164c-0.4063,0.5234 -0.8789,0.9961 -1.4024,1.4023c0.1055,-0.082 0.2109,-0.164 0.3164,-0.2461c-0.5312,0.4063 -1.1094,0.7461 -1.7265,1.0078c0.125,-0.0507 0.25,-0.1054 0.375,-0.1562c-0.6329,0.2617 -1.293,0.4414 -1.9727,0.5352c0.1367,-0.0196 0.2773,-0.0391 0.4141,-0.0547c-0.6836,0.0898 -1.3711,0.0898 -2.0547,0c0.1367,0.0195 0.2773,0.039 0.414,0.0547c-0.6797,-0.0938 -1.3398,-0.2735 -1.9726,-0.5352c0.125,0.0508 0.25,0.1055 0.375,0.1562c-0.6172,-0.2617 -1.1953,-0.5976 -1.7266,-1.0078c0.1055,0.0821 0.2109,0.1641 0.3164,0.2461c-0.5234,-0.4062 -0.9961,-0.8789 -1.4023,-1.4023c0.082,0.1055 0.164,0.2109 0.2461,0.3164c-0.4063,-0.5313 -0.7461,-1.1094 -1.0078,-1.7266c0.0507,0.125 0.1054,0.25 0.1562,0.375c-0.2617,-0.6328 -0.4414,-1.2929 -0.5352,-1.9726c0.0196,0.1367 0.0391,0.2773 0.0547,0.414c-0.0898,-0.6836 -0.0898,-1.3711 0,-2.05465c-0.0195,0.13672 -0.039,0.27735 -0.0547,0.41405c0.0938,-0.67968 0.2735,-1.33983 0.5352,-1.97265c-0.0508,0.125 -0.1055,0.25 -0.1562,0.375c0.2617,-0.61718 0.5976,-1.19531 1.0078,-1.72656c-0.0821,0.10547 -0.1641,0.21094 -0.2461,0.31641c0.4062,-0.52344 0.8789,-0.9961 1.4023,-1.40235c-0.1055,0.08204 -0.2109,0.16407 -0.3164,0.2461c0.5313,-0.40625 1.1094,-0.7461 1.7266,-1.00781c-0.125,0.05078 -0.25,0.10546 -0.375,0.15625c0.6328,-0.26172 1.2929,-0.44141 1.9726,-0.53516c-0.1367,0.01953 -0.2773,0.03906 -0.414,0.05469c0.6836,-0.08985 1.3711,-0.08985 2.0547,0c-0.1368,-0.01953 -0.2774,-0.03907 -0.4141,-0.05469c0.6797,0.09375 1.3398,0.27344 1.9727,0.53516c-0.125,-0.05079 -0.25,-0.10547 -0.375,-0.15625c0.6171,0.26171 1.1953,0.59765 1.7265,1.00781c-0.1055,-0.08203 -0.2109,-0.16406 -0.3164,-0.2461c0.5235,0.40625 0.9961,0.87891 1.4024,1.40235c-0.0821,-0.10547 -0.1641,-0.21094 -0.2461,-0.31641c0.4062,0.53125 0.7461,1.10938 1.0078,1.72656c-0.0508,-0.125 -0.1055,-0.25 -0.1563,-0.375c0.2617,0.63282 0.4414,1.29297 0.5352,1.97265c-0.0196,-0.1367 -0.0391,-0.27733 -0.0547,-0.41405c0.043,0.33985 0.0625,0.68355 0.0664,1.02735c0.0039,0.8164 0.7148,1.6016 1.5625,1.5625c0.8438,-0.0391 1.5664,-0.6875 1.5625,-1.5625c-0.0078,-1.8711 -0.5703,-3.78516 -1.6719,-5.3086c-0.2968,-0.41016 -0.6133,-0.8125 -0.9648,-1.17578c-0.3555,-0.36719 -0.7461,-0.6836 -1.1524,-0.99219c-0.7382,-0.5625 -1.5625,-0.97656 -2.4375,-1.29688c-3.5273,-1.29296 -7.7812,-0.14062 -10.1679,2.76563c-0.3282,0.39844 -0.6407,0.8125 -0.9063,1.25781c-0.2656,0.44141 -0.4727,0.91016 -0.6641,1.38672c-0.3593,0.88281 -0.5429,1.82031 -0.6171,2.76949c-0.1446,1.8594 0.3398,3.8008 1.3085,5.3946c0.9336,1.539 2.3438,2.8593 3.9922,3.6054c0.4844,0.2188 0.9805,0.4219 1.4961,0.5664c0.5118,0.1407 1.0313,0.2188 1.5586,0.2813c0.961,0.1133 1.9414,0.0352 2.8907,-0.1563c3.6054,-0.7343 6.625,-3.8398 7.1836,-7.4843c0.082,-0.5313 0.1445,-1.0625 0.1445,-1.6016c0.0039,-0.8164 -0.7227,-1.60155 -1.5625,-1.56249c-0.8438,0.02734 -1.5547,0.67578 -1.5547,1.55079zm5.1836,24.4258c-0.7656,0 -1.5313,0 -2.2969,0c-1.8242,0 -3.6445,0 -5.4687,0c-2.1953,0 -4.3907,0 -6.5899,0c-1.8945,0 -3.789,0 -5.6875,0c-0.8867,0 -1.77343,0.0078 -2.66015,0c-0.09765,0 -0.19531,-0.0078 -0.28906,-0.0196c0.13672,0.0196 0.27734,0.0391 0.41406,0.0547c-0.15625,-0.0234 -0.30468,-0.0664 -0.44922,-0.125c0.125,0.0508 0.25,0.1055 0.375,0.1563c-0.15625,-0.0664 -0.30078,-0.1524 -0.4375,-0.2578c0.10547,0.082 0.21094,0.164 0.31641,0.2461c-0.11719,-0.0977 -0.22656,-0.2032 -0.32031,-0.3204c0.08203,0.1055 0.16406,0.211 0.24609,0.3165c-0.10547,-0.1368 -0.1875,-0.2813 -0.25781,-0.4375c0.05078,0.125 0.10547,0.25 0.15625,0.375c-0.05859,-0.1446 -0.09766,-0.2969 -0.125,-0.4493c0.01953,0.1368 0.03906,0.2774 0.05469,0.4141c-0.0625,-0.4727 -0.01954,-0.9727 -0.01954,-1.4492c0,-0.5586 0,-1.1133 0,-1.6719c0,-0.418 0.02344,-0.832 0.07813,-1.2461c-0.01953,0.1367 -0.03906,0.2774 -0.05469,0.4141c0.10938,-0.8008 0.32032,-1.586 0.63672,-2.3321c-0.05078,0.125 -0.10547,0.25 -0.15625,0.375c0.30469,-0.7109 0.69532,-1.3789 1.16797,-1.9921c-0.08203,0.1054 -0.16406,0.2109 -0.24609,0.3164c0.4727,-0.6055 1.0156,-1.1524 1.625,-1.625c-0.1055,0.082 -0.2109,0.164 -0.3164,0.2461c0.6133,-0.4727 1.2812,-0.8633 1.9922,-1.168c-0.125,0.0508 -0.25,0.1055 -0.375,0.1562c0.7461,-0.3125 1.5273,-0.5273 2.332,-0.6367c-0.1367,0.0195 -0.2773,0.0391 -0.414,0.0547c0.5781,-0.0742 1.1523,-0.0781 1.7343,-0.0781c0.7149,0 1.4297,0 2.1446,0c1.6679,0 3.3359,0 5.0039,0c0.6445,0 1.2851,-0.0039 1.9297,0.0781c-0.1368,-0.0195 -0.2774,-0.0391 -0.4141,-0.0547c0.8008,0.1094 1.5859,0.3203 2.332,0.6367c-0.125,-0.0507 -0.25,-0.1054 -0.375,-0.1562c0.711,0.3047 1.3789,0.6953 1.9922,1.168c-0.1054,-0.0821 -0.2109,-0.1641 -0.3164,-0.2461c0.6055,0.4726 1.1524,1.0156 1.625,1.625c-0.082,-0.1055 -0.164,-0.211 -0.2461,-0.3164c0.4727,0.6132 0.8633,1.2812 1.168,1.9921c-0.0508,-0.125 -0.1055,-0.25 -0.1563,-0.375c0.3125,0.7461 0.5274,1.5274 0.6368,2.3321c-0.0196,-0.1367 -0.0391,-0.2774 -0.0547,-0.4141c0.0742,0.5899 0.0781,1.1758 0.0781,1.7695c0,0.6446 0,1.2891 0,1.9336c0,0.2227 0.0078,0.4453 -0.0195,0.6641c0.0195,-0.1367 0.039,-0.2773 0.0547,-0.4141c-0.0235,0.1563 -0.0665,0.3047 -0.125,0.4493c0.0507,-0.125 0.1054,-0.25 0.1562,-0.375c-0.0664,0.1562 -0.1523,0.3007 -0.2578,0.4375c0.082,-0.1055 0.1641,-0.211 0.2461,-0.3165c-0.0977,0.1172 -0.2031,0.2266 -0.3203,0.3204c0.1054,-0.0821 0.2109,-0.1641 0.3164,-0.2461c-0.1367,0.1054 -0.2813,0.1875 -0.4375,0.2578c0.125,-0.0508 0.25,-0.1055 0.375,-0.1563c-0.1446,0.0586 -0.2969,0.0977 -0.4492,0.125c0.1367,-0.0195 0.2773,-0.039 0.414,-0.0547c-0.0859,0.0118 -0.1758,0.0157 -0.2656,0.0196c-0.4023,0.0039 -0.8164,0.1718 -1.1055,0.457c-0.2695,0.2695 -0.4765,0.7148 -0.457,1.1055c0.0391,0.8359 0.6875,1.5742 1.5625,1.5625c1.5195,-0.0235 2.8555,-1.0157 3.3008,-2.4727c0.1758,-0.5781 0.1367,-1.1992 0.1367,-1.793c0,-1.3593 0.043,-2.707 -0.1914,-4.0546c-0.3438,-1.9727 -1.3359,-3.8282 -2.6953,-5.2852c-1.3594,-1.457 -3.1875,-2.5273 -5.1211,-3.0039c-1.1094,-0.2734 -2.2266,-0.3164 -3.3594,-0.3164c-1.1641,0 -2.3242,0 -3.4883,0c-1.1484,0 -2.293,0 -3.4414,0c-1.1601,0 -2.3125,0.0547 -3.4414,0.3555c-1.918,0.5078 -3.72266,1.5898 -5.05469,3.0586c-1.34375,1.4804 -2.31641,3.3398 -2.63282,5.3242c-0.21093,1.332 -0.16797,2.6679 -0.16797,4.0117c0,0.6172 -0.03515,1.2617 0.1875,1.8516c0.28907,0.7578 0.75001,1.3554 1.42579,1.8046c0.52734,0.3477 1.19531,0.5157 1.82031,0.5235c0.30469,0.0039 0.60938,0 0.91407,0c0.78121,0 1.55861,0 2.33981,0c1.1094,0 2.2149,0 3.3243,0c1.289,0 2.5781,0 3.8671,0c1.3243,0 2.6446,0 3.9688,0c1.2109,0 2.418,0 3.6289,0c0.9492,0 1.8984,0 2.8438,0c0.5429,0 1.0859,0 1.6289,0c0.0703,0 0.1406,0 0.2109,0c0.8164,0 1.6016,-0.7188 1.5625,-1.5625c-0.0391,-0.8516 -0.6875,-1.5664 -1.5664,-1.5664z"/>
 </g>
</svg>