<?xml version="1.0" encoding="UTF-8" standalone="no"?>
<!DOCTYPE svg PUBLIC "-//W3C//DTD SVG 1.1//EN" "http://www.w3.org/Graphics/SVG/1.1/DTD/svg11.dtd">
<svg width="100%" height="100%" viewBox="0 0 40 40" version="1.1" xmlns="http://www.w3.org/2000/svg" xmlns:xlink="http://www.w3.org/1999/xlink" xml:space="preserve" xmlns:serif="http://www.serif.com/" style="fill-rule:evenodd;clip-rule:evenodd;stroke-linejoin:round;stroke-miterlimit:2;">
    <g>
        <path id="svg_1" d="M33.333,3.333L16.667,3.333C15.341,3.333 14.069,3.86 13.131,4.798C12.194,5.735 11.667,7.007 11.667,8.333L11.667,11.667L6.667,11.667C5.341,11.667 4.069,12.193 3.131,13.131C2.193,14.069 1.667,15.341 1.667,16.667L1.667,26.667C1.666,27.701 1.986,28.71 2.583,29.555C3.18,30.4 4.025,31.039 5,31.383L5,35C5.001,35.295 5.079,35.585 5.229,35.84C5.378,36.095 5.593,36.305 5.85,36.45C6.099,36.591 6.38,36.666 6.667,36.667C6.966,36.667 7.259,36.586 7.517,36.433L15.467,31.667L23.333,31.667C24.659,31.667 25.931,31.14 26.869,30.202C27.807,29.265 28.333,27.993 28.333,26.667L28.333,25.617L32.483,28.1C32.741,28.253 33.034,28.333 33.333,28.333C33.62,28.332 33.901,28.258 34.15,28.117C34.407,27.972 34.622,27.761 34.771,27.507C34.92,27.252 35,26.962 35,26.667L35,23.05C35.975,22.705 36.82,22.066 37.417,21.222C38.014,20.377 38.334,19.368 38.333,18.333L38.333,8.333C38.333,7.007 37.807,5.735 36.869,4.798C35.931,3.86 34.659,3.333 33.333,3.333ZM25,26.667C25,27.109 24.824,27.533 24.512,27.845C24.199,28.158 23.775,28.333 23.333,28.333L15,28.333C14.701,28.333 14.407,28.414 14.15,28.567L8.333,32.05L8.333,30C8.333,29.558 8.158,29.134 7.845,28.822C7.533,28.509 7.109,28.333 6.667,28.333C6.225,28.333 5.801,28.158 5.488,27.845C5.176,27.533 5,27.109 5,26.667L5,16.667C5,16.225 5.176,15.801 5.488,15.488C5.801,15.176 6.225,15 6.667,15L11.667,15L11.667,18.333C11.667,19.659 12.194,20.931 13.131,21.869C14.069,22.807 15.341,23.333 16.667,23.333L24.533,23.333L25,23.617L25,26.667ZM35,18.333C35,18.775 34.824,19.199 34.512,19.512C34.199,19.824 33.775,20 33.333,20C32.891,20 32.467,20.176 32.155,20.488C31.842,20.801 31.667,21.225 31.667,21.667L31.667,23.717L25.85,20.233C25.593,20.081 25.299,20 25,20L16.667,20C16.225,20 15.801,19.824 15.488,19.512C15.176,19.199 15,18.775 15,18.333L15,8.333C15,7.891 15.176,7.467 15.488,7.155C15.801,6.842 16.225,6.667 16.667,6.667L33.333,6.667C33.775,6.667 34.199,6.842 34.512,7.155C34.824,7.467 35,7.891 35,8.333L35,18.333Z" style="fill:rgb(77,68,181);fill-rule:nonzero;"/>
    </g>
</svg>
