<svg width="40" height="40" xmlns="http://www.w3.org/2000/svg" fill="none">

 <g>
  <title>Layer 1</title>
  <path id="svg_1" fill="#ffffff" d="m33.3333,3.33331l-16.6666,0c-1.3261,0 -2.5979,0.52679 -3.5356,1.46447c-0.9376,0.93768 -1.4644,2.20945 -1.4644,3.53553l0,3.33329l-5.00003,0c-1.32608,0 -2.59785,0.5268 -3.53553,1.4645c-0.93768,0.9377 -1.46447,2.2095 -1.46447,3.5355l0,10c-0.00054,1.0345 0.31976,2.0436 0.91676,2.8883c0.597,0.8448 1.44131,1.4836 2.41658,1.8284l0,3.6167c0.0005,0.2953 0.07948,0.5852 0.22883,0.84c0.14935,0.2548 0.36372,0.4653 0.62117,0.61c0.24909,0.1412 0.53035,0.2158 0.81666,0.2166c0.29914,0 0.59274,-0.0806 0.85,-0.2333l7.95003,-4.7667l7.8666,0c1.3261,0 2.5979,-0.5267 3.5356,-1.4644c0.9377,-0.9377 1.4644,-2.2095 1.4644,-3.5356l0,-1.05l4.15,2.4834c0.2573,0.1526 0.5509,0.2332 0.85,0.2333c0.2863,-0.0009 0.5676,-0.0755 0.8167,-0.2167c0.2574,-0.1447 0.4718,-0.3552 0.6212,-0.61c0.1493,-0.2547 0.2283,-0.5446 0.2288,-0.84l0,-3.6166c0.9753,-0.3448 1.8196,-0.9836 2.4166,-1.8284c0.597,-0.8447 0.9173,-1.8539 0.9167,-2.8883l0,-9.99999c0,-1.32608 -0.5267,-2.59785 -1.4644,-3.53553c-0.9377,-0.93768 -2.2095,-1.46447 -3.5356,-1.46447zm-8.3333,23.33329c0,0.4421 -0.1756,0.866 -0.4882,1.1786c-0.3125,0.3125 -0.7364,0.4881 -1.1785,0.4881l-8.3333,0c-0.2991,0.0001 -0.5927,0.0807 -0.85,0.2333l-5.81666,3.4834l0,-2.05c0,-0.442 -0.1756,-0.866 -0.48816,-1.1785c-0.31256,-0.3126 -0.73648,-0.4882 -1.17851,-0.4882c-0.44203,0 -0.86595,-0.1756 -1.17851,-0.4881c-0.31256,-0.3126 -0.48815,-0.7365 -0.48815,-1.1786l0,-10c0,-0.442 0.17559,-0.8659 0.48815,-1.1785c0.31256,-0.3125 0.73648,-0.4881 1.17851,-0.4881l5.00003,0l0,3.3333c0,1.3261 0.5268,2.5979 1.4644,3.5355c0.9377,0.9377 2.2095,1.4645 3.5356,1.4645l7.8666,0l0.4667,0.2833l0,3.05zm10,-8.3333c0,0.442 -0.1756,0.866 -0.4882,1.1785c-0.3125,0.3126 -0.7364,0.4882 -1.1785,0.4882c-0.442,0 -0.8659,0.1756 -1.1785,0.4881c-0.3125,0.3126 -0.4881,0.7365 -0.4881,1.1785l0,2.05l-5.8167,-3.4833c-0.2573,-0.1526 -0.5509,-0.2332 -0.85,-0.2333l-8.3333,0c-0.4421,0 -0.866,-0.1756 -1.1785,-0.4882c-0.3126,-0.3125 -0.4882,-0.7365 -0.4882,-1.1785l0,-9.99999c0,-0.44202 0.1756,-0.86595 0.4882,-1.17851c0.3125,-0.31256 0.7364,-0.48815 1.1785,-0.48815l16.6666,0c0.4421,0 0.866,0.17559 1.1785,0.48815c0.3126,0.31256 0.4882,0.73649 0.4882,1.17851l0,9.99999z"/>
 </g>
</svg>