<?xml version="1.0" encoding="UTF-8" standalone="no"?>
<!DOCTYPE svg PUBLIC "-//W3C//DTD SVG 1.1//EN" "http://www.w3.org/Graphics/SVG/1.1/DTD/svg11.dtd">
<svg width="100%" height="100%" viewBox="0 0 40 40" version="1.1" xmlns="http://www.w3.org/2000/svg" xmlns:xlink="http://www.w3.org/1999/xlink" xml:space="preserve" xmlns:serif="http://www.serif.com/" style="fill-rule:evenodd;clip-rule:evenodd;stroke-linejoin:round;stroke-miterlimit:2;">
    <g>
        <path id="svg_1" d="M26.176,10.875C26.176,11.219 26.152,11.563 26.109,11.902C26.129,11.766 26.148,11.625 26.164,11.488C26.07,12.168 25.891,12.828 25.629,13.461C25.68,13.336 25.734,13.211 25.785,13.086C25.523,13.703 25.188,14.281 24.777,14.813C24.859,14.707 24.941,14.602 25.023,14.496C24.617,15.02 24.145,15.492 23.621,15.898C23.727,15.816 23.832,15.734 23.938,15.652C23.406,16.059 22.828,16.398 22.211,16.66C22.336,16.609 22.461,16.555 22.586,16.504C21.953,16.766 21.293,16.945 20.613,17.039C20.75,17.02 20.891,17 21.027,16.984C20.344,17.074 19.656,17.074 18.973,16.984C19.109,17.004 19.25,17.023 19.387,17.039C18.707,16.945 18.047,16.766 17.414,16.504C17.539,16.555 17.664,16.609 17.789,16.66C17.172,16.398 16.594,16.063 16.063,15.652C16.168,15.734 16.273,15.816 16.379,15.898C15.856,15.492 15.383,15.02 14.977,14.496C15.059,14.602 15.141,14.707 15.223,14.813C14.816,14.281 14.477,13.703 14.215,13.086C14.266,13.211 14.32,13.336 14.371,13.461C14.109,12.828 13.93,12.168 13.836,11.488C13.856,11.625 13.875,11.766 13.891,11.902C13.801,11.219 13.801,10.531 13.891,9.848C13.871,9.984 13.852,10.125 13.836,10.262C13.93,9.582 14.109,8.922 14.371,8.289C14.32,8.414 14.266,8.539 14.215,8.664C14.477,8.047 14.813,7.469 15.223,6.937C15.141,7.043 15.059,7.148 14.977,7.254C15.383,6.73 15.856,6.258 16.379,5.852C16.273,5.934 16.168,6.016 16.063,6.098C16.594,5.691 17.172,5.352 17.789,5.09C17.664,5.141 17.539,5.195 17.414,5.246C18.047,4.984 18.707,4.805 19.387,4.711C19.25,4.73 19.109,4.75 18.973,4.766C19.656,4.676 20.344,4.676 21.027,4.766C20.891,4.746 20.75,4.727 20.613,4.711C21.293,4.805 21.953,4.984 22.586,5.246C22.461,5.195 22.336,5.141 22.211,5.09C22.828,5.352 23.406,5.687 23.938,6.098C23.832,6.016 23.727,5.934 23.621,5.852C24.145,6.258 24.617,6.73 25.023,7.254C24.941,7.148 24.859,7.043 24.777,6.937C25.184,7.469 25.523,8.047 25.785,8.664C25.734,8.539 25.68,8.414 25.629,8.289C25.891,8.922 26.07,9.582 26.164,10.262C26.144,10.125 26.125,9.984 26.109,9.848C26.152,10.188 26.172,10.531 26.176,10.875C26.18,11.691 26.891,12.477 27.738,12.438C28.582,12.398 29.305,11.75 29.301,10.875C29.293,9.004 28.731,7.09 27.629,5.566C27.332,5.156 27.016,4.754 26.664,4.391C26.309,4.023 25.918,3.707 25.512,3.398C24.773,2.836 23.949,2.422 23.074,2.102C19.547,0.809 15.293,1.961 12.906,4.867C12.578,5.266 12.266,5.68 12,6.125C11.734,6.566 11.527,7.035 11.336,7.512C10.977,8.395 10.793,9.332 10.719,10.281C10.574,12.141 11.059,14.082 12.027,15.676C12.961,17.215 14.371,18.535 16.019,19.281C16.504,19.5 17,19.703 17.516,19.848C18.027,19.988 18.547,20.066 19.074,20.129C20.035,20.242 21.016,20.164 21.965,19.973C25.57,19.238 28.59,16.133 29.148,12.488C29.23,11.957 29.293,11.426 29.293,10.887C29.297,10.07 28.57,9.285 27.73,9.324C26.887,9.352 26.176,10 26.176,10.875ZM31.359,35.301L11.316,35.301C10.43,35.301 9.543,35.309 8.656,35.301C8.559,35.301 8.461,35.293 8.367,35.281C8.504,35.301 8.645,35.32 8.781,35.336C8.625,35.312 8.477,35.269 8.332,35.211C8.457,35.262 8.582,35.316 8.707,35.367C8.551,35.301 8.406,35.215 8.27,35.109C8.375,35.191 8.48,35.273 8.586,35.355C8.469,35.258 8.359,35.152 8.266,35.035C8.348,35.141 8.43,35.246 8.512,35.352C8.406,35.215 8.324,35.07 8.254,34.914C8.305,35.039 8.359,35.164 8.41,35.289C8.352,35.144 8.313,34.992 8.285,34.84C8.305,34.977 8.324,35.117 8.34,35.254C8.277,34.781 8.32,34.281 8.32,33.805L8.32,32.133C8.32,31.715 8.344,31.301 8.398,30.887C8.379,31.023 8.359,31.164 8.344,31.301C8.453,30.5 8.664,29.715 8.98,28.969C8.93,29.094 8.875,29.219 8.824,29.344C9.129,28.633 9.52,27.965 9.992,27.352C9.91,27.457 9.828,27.562 9.746,27.668C10.219,27.062 10.762,26.516 11.371,26.043C11.266,26.125 11.16,26.207 11.055,26.289C11.668,25.816 12.336,25.426 13.047,25.121C12.922,25.172 12.797,25.227 12.672,25.277C13.418,24.965 14.199,24.75 15.004,24.641C14.867,24.66 14.727,24.68 14.59,24.695C15.168,24.621 15.742,24.617 16.324,24.617L23.473,24.617C24.117,24.617 24.758,24.613 25.402,24.695C25.266,24.676 25.125,24.656 24.988,24.641C25.789,24.75 26.574,24.961 27.32,25.277C27.195,25.227 27.07,25.172 26.945,25.121C27.656,25.426 28.324,25.816 28.938,26.289C28.832,26.207 28.727,26.125 28.621,26.043C29.227,26.516 29.774,27.059 30.246,27.668C30.164,27.562 30.082,27.457 30,27.352C30.473,27.965 30.863,28.633 31.168,29.344C31.117,29.219 31.063,29.094 31.012,28.969C31.324,29.715 31.539,30.496 31.649,31.301C31.629,31.164 31.609,31.023 31.594,30.887C31.668,31.477 31.672,32.062 31.672,32.656L31.672,34.59C31.672,34.812 31.68,35.035 31.652,35.254C31.672,35.117 31.691,34.977 31.707,34.84C31.684,34.996 31.641,35.144 31.582,35.289C31.633,35.164 31.688,35.039 31.738,34.914C31.672,35.07 31.586,35.215 31.481,35.352C31.563,35.246 31.645,35.141 31.727,35.035C31.629,35.152 31.523,35.262 31.406,35.355C31.512,35.273 31.617,35.191 31.723,35.109C31.586,35.215 31.441,35.297 31.285,35.367C31.41,35.316 31.535,35.262 31.66,35.211C31.516,35.269 31.363,35.309 31.211,35.336C31.348,35.316 31.488,35.297 31.625,35.281C31.539,35.293 31.449,35.297 31.359,35.301C30.957,35.305 30.543,35.473 30.254,35.758C29.984,36.027 29.777,36.473 29.797,36.863C29.836,37.699 30.484,38.437 31.359,38.426C32.879,38.402 34.215,37.41 34.66,35.953C34.836,35.375 34.797,34.754 34.797,34.16C34.797,32.801 34.84,31.453 34.606,30.105C34.262,28.133 33.27,26.277 31.91,24.82C30.551,23.363 28.723,22.293 26.789,21.816C25.68,21.543 24.562,21.5 23.43,21.5L16.5,21.5C15.34,21.5 14.188,21.555 13.059,21.855C11.141,22.363 9.336,23.445 8.004,24.914C6.66,26.394 5.688,28.254 5.371,30.238C5.16,31.57 5.203,32.906 5.203,34.25C5.203,34.867 5.168,35.512 5.391,36.102C5.68,36.859 6.141,37.457 6.816,37.906C7.344,38.254 8.012,38.422 8.637,38.43C8.941,38.434 9.246,38.43 9.551,38.43L31.363,38.43C32.18,38.43 32.965,37.711 32.926,36.867C32.887,36.016 32.238,35.301 31.359,35.301Z" style="fill:rgb(77,68,181);fill-rule:nonzero;"/>
    </g>
</svg>
