<?xml version="1.0" encoding="UTF-8" standalone="no"?>
<!DOCTYPE svg PUBLIC "-//W3C//DTD SVG 1.1//EN" "http://www.w3.org/Graphics/SVG/1.1/DTD/svg11.dtd">
<svg width="100%" height="100%" viewBox="0 0 40 40" version="1.1" xmlns="http://www.w3.org/2000/svg" xmlns:xlink="http://www.w3.org/1999/xlink" xml:space="preserve" xmlns:serif="http://www.serif.com/" style="fill-rule:evenodd;clip-rule:evenodd;stroke-linejoin:round;stroke-miterlimit:2;">
    <g>
        <path id="svg_1" d="M23.883,33.333L23.533,33.333C22.828,33.263 22.163,32.97 21.636,32.497C21.108,32.023 20.745,31.394 20.6,30.7L16.133,10L11.533,20.667C11.403,20.965 11.189,21.218 10.916,21.396C10.644,21.574 10.325,21.668 10,21.667L5,21.667C4.558,21.667 4.134,21.491 3.821,21.179C3.509,20.866 3.333,20.442 3.333,20C3.333,19.558 3.509,19.134 3.821,18.822C4.134,18.509 4.558,18.333 5,18.333L8.9,18.333L13.083,8.683C13.365,8.036 13.845,7.494 14.454,7.137C15.063,6.78 15.77,6.626 16.473,6.696C17.175,6.766 17.837,7.058 18.363,7.529C18.89,8 19.253,8.626 19.4,9.317L23.867,30L28.467,19.367C28.592,19.062 28.804,18.802 29.077,18.618C29.35,18.434 29.671,18.335 30,18.333L35,18.333C35.442,18.333 35.866,18.509 36.179,18.822C36.491,19.134 36.667,19.558 36.667,20C36.667,20.442 36.491,20.866 36.179,21.179C35.866,21.491 35.442,21.667 35,21.667L31.1,21.667L26.917,31.317C26.661,31.911 26.238,32.418 25.7,32.776C25.161,33.134 24.53,33.328 23.883,33.333Z" style="fill:rgb(77,68,181);fill-rule:nonzero;"/>
    </g>
</svg>
