<svg width="28" height="28" viewBox="0 0 28 28" fill="none" xmlns="http://www.w3.org/2000/svg">
<path d="M10.2631 0.666672L9.41671 4.46615C8.93534 4.69779 8.47519 4.96458 8.03389 5.26563L4.32035 4.09636L0.583374 10.5703L3.39848 13.1484C3.28849 13.9648 3.33831 14.3672 3.39848 14.8516L0.583374 17.4297L4.32035 23.9037L8.03389 22.7344C8.47519 23.0354 8.93534 23.3022 9.41671 23.5339L10.2631 27.3333H17.737L18.5834 23.5339C19.0647 23.3022 19.5249 23.0354 19.9662 22.7344L23.6797 23.9037L27.4167 17.4297L24.6016 14.8516C24.6246 14.5682 24.6664 14.2845 24.6667 14C24.6678 13.7069 24.6216 13.4108 24.6016 13.1484L27.4167 10.5703L23.6797 4.09636L19.9662 5.26563C19.5249 4.96458 19.0647 4.69779 18.5834 4.46615L17.737 0.666672H10.2631ZM12.4037 3.33334H15.5964L16.2552 6.29167L16.9167 6.55209C17.6649 6.84512 18.3644 7.24846 18.9922 7.75001L19.5495 8.19271L22.4401 7.28386L24.0365 10.0495L21.8021 12.099L21.9089 12.8021C22.0346 13.5797 22.0101 14.4746 21.9089 15.1979L21.8021 15.901L24.0365 17.9505L22.4401 20.7162L19.5495 19.8073L18.9922 20.25C18.3644 20.7516 17.6649 21.1549 16.9167 21.4479L16.2552 21.7083L15.5964 24.6667H12.4037L11.7448 21.7083L11.0834 21.4479C10.3351 21.1549 9.63569 20.7516 9.00785 20.25L8.45056 19.8073L5.55994 20.7162L3.96358 17.9505L6.19796 15.901L6.09119 15.1979C5.96095 14.4046 5.98095 13.4967 6.09119 12.8021L6.19796 12.099L3.96358 10.0495L5.55994 7.28386L8.45056 8.19271L9.00785 7.75001C9.63569 7.24846 10.3351 6.84512 11.0834 6.55209L11.7448 6.29167L12.4037 3.33334ZM14 8.66667C11.0703 8.66667 8.66671 11.0703 8.66671 14C8.66671 16.9297 11.0703 19.3333 14 19.3333C16.9298 19.3333 19.3334 16.9297 19.3334 14C19.3334 11.0703 16.9298 8.66667 14 8.66667ZM14 11.3333C15.4886 11.3333 16.6667 12.5115 16.6667 14C16.6667 15.4886 15.4886 16.6667 14 16.6667C12.5115 16.6667 11.3334 15.4886 11.3334 14C11.3334 12.5115 12.5115 11.3333 14 11.3333Z" fill="#A098AE"/>
</svg>
